<svg width="1200" height="1200" viewBox="0 0 1200 1200" fill="none" xmlns="http://www.w3.org/2000/svg">
  <rect width="1200" height="1200" rx="120" fill="#0E1930"/>
  <rect x="80" y="80" width="1040" height="1040" rx="72" fill="#08111F" stroke="#6CE5B1" stroke-width="16"/>
  <g opacity="0.92">
    <rect x="144" y="144" width="232" height="232" rx="28" fill="#EDF3FF"/>
    <rect x="200" y="200" width="120" height="120" rx="16" fill="#08111F"/>
    <rect x="824" y="144" width="232" height="232" rx="28" fill="#EDF3FF"/>
    <rect x="880" y="200" width="120" height="120" rx="16" fill="#08111F"/>
    <rect x="144" y="824" width="232" height="232" rx="28" fill="#EDF3FF"/>
    <rect x="200" y="880" width="120" height="120" rx="16" fill="#08111F"/>
  </g>
  <g fill="#EDF3FF">
    <rect x="472" y="144" width="72" height="72" rx="14"/>
    <rect x="568" y="144" width="72" height="72" rx="14"/>
    <rect x="712" y="144" width="72" height="72" rx="14"/>
    <rect x="472" y="240" width="72" height="72" rx="14"/>
    <rect x="664" y="240" width="72" height="72" rx="14"/>
    <rect x="472" y="336" width="72" height="72" rx="14"/>
    <rect x="568" y="336" width="72" height="72" rx="14"/>
    <rect x="760" y="336" width="72" height="72" rx="14"/>
    <rect x="472" y="472" width="72" height="72" rx="14"/>
    <rect x="568" y="472" width="72" height="72" rx="14"/>
    <rect x="664" y="472" width="72" height="72" rx="14"/>
    <rect x="760" y="472" width="72" height="72" rx="14"/>
    <rect x="472" y="568" width="72" height="72" rx="14"/>
    <rect x="664" y="568" width="72" height="72" rx="14"/>
    <rect x="760" y="568" width="72" height="72" rx="14"/>
    <rect x="472" y="664" width="72" height="72" rx="14"/>
    <rect x="568" y="664" width="72" height="72" rx="14"/>
    <rect x="760" y="664" width="72" height="72" rx="14"/>
    <rect x="472" y="760" width="72" height="72" rx="14"/>
    <rect x="568" y="760" width="72" height="72" rx="14"/>
    <rect x="664" y="760" width="72" height="72" rx="14"/>
    <rect x="760" y="760" width="72" height="72" rx="14"/>
    <rect x="472" y="856" width="72" height="72" rx="14"/>
    <rect x="664" y="856" width="72" height="72" rx="14"/>
    <rect x="856" y="472" width="72" height="72" rx="14"/>
    <rect x="952" y="472" width="72" height="72" rx="14"/>
    <rect x="856" y="568" width="72" height="72" rx="14"/>
    <rect x="952" y="568" width="72" height="72" rx="14"/>
    <rect x="856" y="664" width="72" height="72" rx="14"/>
    <rect x="952" y="664" width="72" height="72" rx="14"/>
    <rect x="856" y="760" width="72" height="72" rx="14"/>
    <rect x="952" y="760" width="72" height="72" rx="14"/>
    <rect x="856" y="856" width="72" height="72" rx="14"/>
    <rect x="952" y="856" width="72" height="72" rx="14"/>
  </g>
  <rect x="170" y="1030" width="860" height="34" rx="17" fill="#6CE5B1" opacity="0.85"/>
  <text x="600" y="1110" text-anchor="middle" fill="#EDF3FF" font-family="Segoe UI, Arial, sans-serif" font-size="44" font-weight="700">Replace with your QR</text>
</svg>
